<svg xmlns="http://www.w3.org/2000/svg" width="16" height="16" viewBox="0 0 16 16" fill="none">
  <g clip-path="url(#clip0_20_1460)">
    <path d="M1.7072 3.7929L8.0001 10.0858L14.293 3.7929C14.3857 3.69912 14.4959 3.62458 14.6175 3.57358C14.7391 3.52257 14.8695 3.49611 15.0014 3.49571C15.1332 3.49531 15.2638 3.52098 15.3857 3.57124C15.5075 3.62151 15.6183 3.69538 15.7115 3.7886C15.8047 3.88182 15.8786 3.99255 15.9289 4.11442C15.9791 4.2363 16.0048 4.36691 16.0044 4.49874C16.004 4.63057 15.9775 4.76102 15.9265 4.88259C15.8755 5.00415 15.801 5.11444 15.7072 5.20709L8.7072 12.2071C8.51966 12.3946 8.26531 12.5 8.0001 12.5C7.73489 12.5 7.48054 12.3946 7.29301 12.2071L0.293008 5.20709C0.107353 5.01917 0.00359763 4.76542 0.00439949 4.50125C0.00520136 4.23709 0.110495 3.98397 0.297288 3.79718C0.484081 3.61039 0.737196 3.5051 1.00136 3.50429C1.26552 3.50349 1.51927 3.60725 1.7072 3.7929Z" fill="#001527"/>
  </g>
  <defs>
    <clipPath id="clip0_20_1460">
      <rect width="16" height="16" fill="white" transform="translate(6.99382e-07 16) rotate(-90)"/>
    </clipPath>
  </defs>
</svg>